HIERARCHY
ROOT Hips
{
  OFFSET 5.80788e-005 67.184 3.4734
  CHANNELS 6 Xposition Yposition Zposition Zrotation Xrotation Yrotation
  JOINT Chest
  {
    OFFSET 0 8.7983 -4.7612
    CHANNELS 3 Zrotation Xrotation Yrotation
    JOINT Chest2
    {
      OFFSET 0 8.0291 0.4195
      CHANNELS 3 Zrotation Xrotation Yrotation
      JOINT Chest3
      {
        OFFSET 0 9.9351 -2.2114
        CHANNELS 3 Zrotation Xrotation Yrotation
        JOINT Neck
        {
          OFFSET 0 22.3885 -0.4656
          CHANNELS 3 Zrotation Xrotation Yrotation
          JOINT Head
          {
            OFFSET -0.0001 12.643 3.4389
            CHANNELS 3 Zrotation Xrotation Yrotation
            End Site
            {
              OFFSET 0.0001 17.6655 0.5274
            }
          }
        }
        JOINT LeftCollar
        {
          OFFSET 2.2603 21.606 7.4023
          CHANNELS 3 Zrotation Xrotation Yrotation
          JOINT LeftShoulder
          {
            OFFSET 13.5163 -1.1332 -5.0146
            CHANNELS 3 Zrotation Xrotation Yrotation
            JOINT LeftElbow
            {
              OFFSET -0.0995 -28.05 -0.2431
              CHANNELS 3 Zrotation Xrotation Yrotation
              JOINT LeftWrist
              {
                OFFSET 0.0679 -23.3996 -0.1402
                CHANNELS 3 Zrotation Xrotation Yrotation
                JOINT LeftFinger1
                {
                  OFFSET 0.7932 -9.069 2.5189
                  CHANNELS 3 Zrotation Xrotation Yrotation
                  JOINT LeftFinger11
                  {
                    OFFSET -0.8272 -3.3923 0.5977
                    CHANNELS 3 Zrotation Xrotation Yrotation
                    JOINT LeftFinger12
                    {
                      OFFSET -0.5649 -2.3158 0.4082
                      CHANNELS 3 Zrotation Xrotation Yrotation
                      End Site
                      {
                        OFFSET -0.4919 -1.6479 0.2673
                      }
                    }
                  }
                }
                JOINT LeftFinger2
                {
                  OFFSET 0.9159 -9.2044 0.2193
                  CHANNELS 3 Zrotation Xrotation Yrotation
                  JOINT LeftFinger21
                  {
                    OFFSET 0.0117 -4.1944 -0.0248
                    CHANNELS 3 Zrotation Xrotation Yrotation
                    JOINT LeftFinger22
                    {
                      OFFSET 0.0071 -2.3249 -0.0142
                      CHANNELS 3 Zrotation Xrotation Yrotation
                      End Site
                      {
                        OFFSET -0.1475 -2.0882 0.0028
                      }
                    }
                  }
                }
                JOINT LeftFinger3
                {
                  OFFSET 0.6113 -8.7231 -2.0637
                  CHANNELS 3 Zrotation Xrotation Yrotation
                  JOINT LeftFinger31
                  {
                    OFFSET -0.1927 -3.8059 -0.2383
                    CHANNELS 3 Zrotation Xrotation Yrotation
                    JOINT LeftFinger32
                    {
                      OFFSET -0.1091 -2.1688 -0.1362
                      CHANNELS 3 Zrotation Xrotation Yrotation
                      End Site
                      {
                        OFFSET -0.2358 -1.9176 -0.0906
                      }
                    }
                  }
                }
                JOINT LeftFinger4
                {
                  OFFSET -0.6151 -8.0947 -3.5641
                  CHANNELS 3 Zrotation Xrotation Yrotation
                  JOINT LeftFinger41
                  {
                    OFFSET -0.4882 -2.341 -0.6462
                    CHANNELS 3 Zrotation Xrotation Yrotation
                    JOINT LeftFinger42
                    {
                      OFFSET -0.3575 -1.7167 -0.4742
                      CHANNELS 3 Zrotation Xrotation Yrotation
                      End Site
                      {
                        OFFSET -0.4187 -1.5237 -0.3496
                      }
                    }
                  }
                }
                JOINT LeftFinger0
                {
                  OFFSET -1.42 -1.8761 1.4223
                  CHANNELS 3 Zrotation Xrotation Yrotation
                  JOINT LeftFinger01
                  {
                    OFFSET -1.1471 -3.4929 2.6334
                    CHANNELS 3 Zrotation Xrotation Yrotation
                    JOINT LeftFinger02
                    {
                      OFFSET -0.823 -2.3 1.6571
                      CHANNELS 3 Zrotation Xrotation Yrotation
                      End Site
                      {
                        OFFSET -0.5822 -1.6914 1.1582
                      }
                    }
                  }
                }
              }
            }
          }
        }
        JOINT RightCollar
        {
          OFFSET -2.2603 21.606 7.4023
          CHANNELS 3 Zrotation Xrotation Yrotation
          JOINT RightShoulder
          {
            OFFSET -13.5187 -1.1334 -5.0155
            CHANNELS 3 Zrotation Xrotation Yrotation
            JOINT RightElbow
            {
              OFFSET 0.0994 -28.0499 -0.2431
              CHANNELS 3 Zrotation Xrotation Yrotation
              JOINT RightWrist
              {
                OFFSET -0.0679 -23.3996 -0.1402
                CHANNELS 3 Zrotation Xrotation Yrotation
                JOINT RightFinger1
                {
                  OFFSET -0.7932 -9.0691 2.5189
                  CHANNELS 3 Zrotation Xrotation Yrotation
                  JOINT RightFinger11
                  {
                    OFFSET 0.8272 -3.3923 0.5977
                    CHANNELS 3 Zrotation Xrotation Yrotation
                    JOINT RightFinger12
                    {
                      OFFSET 0.565 -2.3158 0.4082
                      CHANNELS 3 Zrotation Xrotation Yrotation
                      End Site
                      {
                        OFFSET 0.4919 -1.6479 0.2673
                      }
                    }
                  }
                }
                JOINT RightFinger2
                {
                  OFFSET -0.916 -9.2044 0.2193
                  CHANNELS 3 Zrotation Xrotation Yrotation
                  JOINT RightFinger21
                  {
                    OFFSET -0.0117 -4.1944 -0.0248
                    CHANNELS 3 Zrotation Xrotation Yrotation
                    JOINT RightFinger22
                    {
                      OFFSET -0.0071 -2.3249 -0.0142
                      CHANNELS 3 Zrotation Xrotation Yrotation
                      End Site
                      {
                        OFFSET 0.1475 -2.0882 0.0028
                      }
                    }
                  }
                }
                JOINT RightFinger3
                {
                  OFFSET -0.6113 -8.7231 -2.0637
                  CHANNELS 3 Zrotation Xrotation Yrotation
                  JOINT RightFinger31
                  {
                    OFFSET 0.1927 -3.8059 -0.2383
                    CHANNELS 3 Zrotation Xrotation Yrotation
                    JOINT RightFinger32
                    {
                      OFFSET 0.1091 -2.1688 -0.1362
                      CHANNELS 3 Zrotation Xrotation Yrotation
                      End Site
                      {
                        OFFSET 0.2358 -1.9176 -0.0906
                      }
                    }
                  }
                }
                JOINT RightFinger4
                {
                  OFFSET 0.6151 -8.0947 -3.564
                  CHANNELS 3 Zrotation Xrotation Yrotation
                  JOINT RightFinger41
                  {
                    OFFSET 0.4882 -2.341 -0.6462
                    CHANNELS 3 Zrotation Xrotation Yrotation
                    JOINT RightFinger42
                    {
                      OFFSET 0.3574 -1.7166 -0.4742
                      CHANNELS 3 Zrotation Xrotation Yrotation
                      End Site
                      {
                        OFFSET 0.4187 -1.5237 -0.3496
                      }
                    }
                  }
                }
                JOINT RightFinger0
                {
                  OFFSET 1.4199 -1.8761 1.4221
                  CHANNELS 3 Zrotation Xrotation Yrotation
                  JOINT RightFinger01
                  {
                    OFFSET 1.1472 -3.4929 2.6336
                    CHANNELS 3 Zrotation Xrotation Yrotation
                    JOINT RightFinger02
                    {
                      OFFSET 0.8229 -2.3 1.6571
                      CHANNELS 3 Zrotation Xrotation Yrotation
                      End Site
                      {
                        OFFSET 0.5822 -1.6914 1.1582
                      }
                    }
                  }
                }
              }
            }
          }
        }
      }
    }
  }
  JOINT RightHip
  {
    OFFSET -9.412 3.9771 -0.7758
    CHANNELS 3 Zrotation Xrotation Yrotation
    JOINT RightKnee
    {
      OFFSET -0.7531 -40.938 0
      CHANNELS 3 Zrotation Xrotation Yrotation
      JOINT RightAnkle
      {
        OFFSET 0 -40.1986 0
        CHANNELS 3 Zrotation Xrotation Yrotation
        JOINT RightToe
        {
          OFFSET 0 -4.4182 9.239
          CHANNELS 3 Zrotation Xrotation Yrotation
          End Site
          {
            OFFSET 0 0 6.1981
          }
        }
      }
    }
  }
  JOINT LeftHip
  {
    OFFSET 9.4119 3.9773 -0.7758
    CHANNELS 3 Zrotation Xrotation Yrotation
    JOINT LeftKnee
    {
      OFFSET 0.7532 -40.9383 0
      CHANNELS 3 Zrotation Xrotation Yrotation
      JOINT LeftAnkle
      {
        OFFSET 0 -40.1986 0
        CHANNELS 3 Zrotation Xrotation Yrotation
        JOINT LeftToe
        {
          OFFSET 0 -4.4182 9.239
          CHANNELS 3 Zrotation Xrotation Yrotation
          End Site
          {
            OFFSET 0 0 6.1981
          }
        }
      }
    }
  }
}
MOTION
Frames:	4
Frame Time:	0.0333333
5.80788e-005 67.184 3.4734 0 0 -0 0 0 -0 0 0 -0 0 0 -0 0 0 -0 0 0 -0 0 0 -12.5014 88.1196 14.2451 10.6914 -0.00160068 -0.00239207 0.000740045 -8.4365e-005 7.00714e-005 -9.52055e-007 9.93923e-017 -1.98785e-016 -1.59028e-015 9.93923e-017 -5.96354e-016 -1.59028e-015 -9.93923e-017 -5.96354e-016 -1.59028e-015 9.93923e-017 -1.98785e-016 -1.59028e-015 -0.0128176 0.00232552 8.52707e-005 9.93923e-017 5.96354e-016 -0 9.93923e-017 -1.98785e-016 -1.59028e-015 -0.0160551 0.00299681 0.000857156 -2.48481e-016 0 3.18055e-015 9.93923e-017 -1.98785e-016 -1.59028e-015 -0.0125865 0.0031206 0.00282719 0 1.98785e-016 -0 9.93923e-017 -1.98785e-016 -1.59028e-015 9.93923e-017 -5.96354e-016 -1.59028e-015 -9.93923e-017 -5.96354e-016 -1.59028e-015 -0.865644 0.16582 7.03859 -88.0329 10.2057 -10.5567 0.0015593 -0.00248883 -0.000788628 7.87605e-005 4.10553e-005 1.24965e-005 -3.97569e-016 -7.95139e-016 3.18055e-015 -1.98785e-016 -3.97569e-016 3.18055e-015 -1.98785e-016 0 3.18055e-015 -3.97569e-016 -7.95139e-016 3.18055e-015 0.0129473 0.00231697 -8.70038e-005 9.93923e-017 -7.95139e-016 1.59028e-015 -3.97569e-016 -7.95139e-016 3.18055e-015 0.0163314 0.00303369 -0.000872333 3.97569e-016 7.95139e-016 -3.18055e-015 -3.97569e-016 -7.95139e-016 3.18055e-015 0.0145763 0.00367772 -0.00326275 9.93923e-017 -3.97569e-016 -0 -3.97569e-016 -7.95139e-016 3.18055e-015 -1.98785e-016 -3.97569e-016 3.18055e-015 -1.98785e-016 0 3.18055e-015 3.42485 1.36937 -0.0640303 0.000136572 0.69354 0.00145564 -3.42573 -2.06297 -0.0607933 -3.19502e-024 0 -1.48106e-024 -3.42498 1.36123 0.0639712 -6.769e-005 0.712612 -0.0012277 3.42582 -2.07388 0.0612819 2.55305e-023 0 -2.31416e-026 
23.5209 -4.29774 13.7531 105.415 -4.35277 164.598 8.82503e-006 20.7998 -5.26814e-006 1.21704e-005 41.5997 -4.84462e-006 1.35893e-005 41.5994 -9.07055e-006 -1.44839e-005 30.9973 9.64572e-007 -9.38233e-006 -35.0004 -9.06077e-006 -1.91539e-005 -0.00183861 -12.5014 87.1986 -78.0837 53.5106 -174.717 -32.8713 -139.23 49.4193 0.48728 -25.0423 4.77083e-015 0 1.98785e-016 1.59028e-015 -4.77083e-015 1.0138e-014 4.08286e-031 -3.18055e-015 7.35503e-015 4.77083e-015 0 1.98785e-016 -0.0128119 0.00231301 9.4195e-005 1.59028e-015 1.59028e-015 -1.59028e-015 4.77083e-015 0 1.98785e-016 -0.0160416 0.00299003 0.000859495 1.59028e-015 3.18055e-015 -1.39149e-015 4.77083e-015 0 1.98785e-016 -0.0125889 0.00310963 0.00282253 6.9519e-031 3.18055e-015 -1.25234e-014 4.77083e-015 0 1.98785e-016 1.59028e-015 -4.77083e-015 1.0138e-014 4.08286e-031 -3.18055e-015 7.35503e-015 7.3833 3.61288 24.9013 -24.9746 -48.3315 8.83105 5.92557 -4.9696 1.90128 36.6547 27.1015 1.39733 -1.27222e-014 -3.18055e-015 -0 -9.54166e-015 3.18055e-015 -0 -6.36111e-015 9.54166e-015 -9.54166e-015 -1.27222e-014 -3.18055e-015 -0 0.0129534 0.00231989 -9.0924e-005 1.27222e-014 3.18055e-015 -4.77083e-015 -1.27222e-014 -3.18055e-015 -0 0.0163803 0.00303872 -0.000879514 5.4192e-006 1.76747e-006 3.50286e-006 -1.27222e-014 -3.18055e-015 -0 0.014541 0.003669 -0.0032539 2.66703e-007 -3.29017e-006 -2.37441e-006 -1.27222e-014 -3.18055e-015 -0 -9.54166e-015 3.18055e-015 -0 -6.36111e-015 9.54166e-015 -9.54166e-015 -69.5617 -26.3326 -36.0347 179.925 40.6629 173.658 -2.21257 14.1192 -3.98748 7.11017e-007 -2.82831e-007 -4.68647e-007 14.5621 11.4958 17.6857 -14.2728 68.7335 14.195 1.64237 -1.30456 0.617362 5.2407e-006 6.4916e-006 9.43977e-006 
23.5191 -4.29473 13.4474 105.415 -4.35275 164.598 2.1823e-005 20.7998 -5.76142e-006 4.05962e-006 41.5997 -4.3184e-007 3.14144e-006 41.5994 -1.44077e-005 1.15269e-005 30.9973 -1.1516e-005 -1.75911e-005 -35.0005 1.35506e-005 8.14973e-007 -0.00182596 -12.5014 87.1985 -78.0836 53.5104 -174.717 -32.8713 -139.23 49.4193 0.487281 -25.0423 -4.77083e-015 -1.59028e-015 -6.95746e-015 -3.18055e-015 0 -3.37934e-015 -3.18055e-015 0 -3.77691e-015 -4.77083e-015 -1.59028e-015 -6.95746e-015 -0.0127957 0.00233263 8.058e-005 1.59028e-015 -1.59028e-015 -1.59028e-015 -4.77083e-015 -1.59028e-015 -6.95746e-015 -0.0160412 0.00299719 0.000860998 -3.18055e-015 -1.59028e-015 1.59028e-015 -4.77083e-015 -1.59028e-015 -6.95746e-015 -0.0126101 0.00313258 0.00282975 -1.32417e-031 3.18055e-015 2.38542e-015 -4.77083e-015 -1.59028e-015 -6.95746e-015 -3.18055e-015 0 -3.37934e-015 -3.18055e-015 0 -3.77691e-015 7.38332 3.61288 24.9013 -24.9746 -48.3315 8.83107 5.72756 -3.91894 1.77351 36.6547 27.1015 1.39735 -9.54166e-015 -9.54166e-015 -0 -6.36111e-015 -1.27222e-014 -1.59028e-015 3.18055e-015 2.87024e-006 -0 -9.54166e-015 -9.54166e-015 -0 0.0130091 0.0023346 -8.57845e-005 3.18055e-015 0 4.77083e-015 -9.54166e-015 -9.54166e-015 -0 0.0163624 0.00303832 -0.000866102 -3.18055e-015 4.39377e-006 -3.18055e-015 -9.54166e-015 -9.54166e-015 -0 0.014604 0.00368329 -0.00325426 3.18055e-015 0 1.59028e-015 -9.54166e-015 -9.54166e-015 -0 -6.36111e-015 -1.27222e-014 -1.59028e-015 3.18055e-015 2.87024e-006 -0 -69.6962 -26.4461 -36.365 179.921 40.6602 173.65 -2.21502 14.1171 -3.99245 -1.4188e-006 -2.80976e-006 -9.89262e-007 14.1785 12.162 18.0579 -13.7075 67.7924 13.5629 1.65087 -1.29433 0.603544 6.03981e-006 -3.03078e-006 -4.60276e-006 
23.5172 -4.29169 13.1416 105.415 -4.35275 164.598 2.91418e-005 20.7998 -7.51773e-006 8.66489e-006 41.5997 -6.01867e-006 -1.03445e-006 41.5994 -1.26809e-005 3.84835e-006 30.9973 -6.38124e-007 -1.43853e-005 -35.0005 -2.16826e-006 1.88266e-006 -0.00182964 -12.5014 87.1985 -78.0836 53.5104 -174.717 -32.8712 -139.23 49.4193 0.487302 -25.0423 3.18055e-015 3.18055e-015 1.78906e-015 -1.59028e-015 -1.59028e-015 -5.56597e-015 0 0 -2.18663e-015 3.18055e-015 3.18055e-015 1.78906e-015 -0.0128034 0.00233208 9.46173e-005 -1.59028e-015 -4.77083e-015 1.15295e-014 3.18055e-015 3.18055e-015 1.78906e-015 -0.0160711 0.00300611 0.000862761 1.59028e-015 -1.59028e-015 -3.97569e-016 3.18055e-015 3.18055e-015 1.78906e-015 -0.0125743 0.00312741 0.00283433 -3.18055e-015 1.59028e-015 -9.74045e-015 3.18055e-015 3.18055e-015 1.78906e-015 -1.59028e-015 -1.59028e-015 -5.56597e-015 0 0 -2.18663e-015 7.38332 3.61288 24.9013 -24.9747 -48.3315 8.83105 5.53193 -2.86684 1.64942 36.6546 27.1015 1.39738 -4.48743e-006 6.9424e-007 4.2148e-006 3.18055e-015 0 6.36111e-015 1.98143e-006 1.51938e-006 2.08674e-006 -4.48743e-006 6.9424e-007 4.2148e-006 0.0129438 0.00230445 -7.67458e-005 -1.27222e-014 3.18055e-015 1.59028e-015 -4.48743e-006 6.9424e-007 4.2148e-006 0.0163583 0.00303982 -0.000873005 -3.18055e-015 0 -9.54166e-015 -4.48743e-006 6.9424e-007 4.2148e-006 0.0145582 0.00366727 -0.00325529 -1.76556e-031 6.36111e-015 1.59028e-015 -4.48743e-006 6.9424e-007 4.2148e-006 3.18055e-015 0 6.36111e-015 1.98143e-006 1.51938e-006 2.08674e-006 -69.8369 -26.5516 -36.6985 179.925 40.6605 173.642 -2.21752 14.1149 -3.99745 -4.77083e-015 3.18055e-015 -1.27222e-014 13.789 12.8258 18.4364 -13.1901 66.8488 12.9786 1.65964 -1.28452 0.589892 -4.35004e-006 -3.73258e-007 4.30539e-006 
